<svg version="1.0" xmlns="http://www.w3.org/2000/svg"
 width="256.000000pt" height="256.000000pt" viewBox="0 0 256.000000 256.000000"
 preserveAspectRatio="xMidYMid meet">

<g transform="translate(0.000000,256.000000) scale(0.100000,-0.100000)"
fill="#000000" stroke="none">
<path d="M0 1280 l0 -1280 1280 0 1280 0 0 1280 0 1280 -1280 0 -1280 0 0
-1280z m1964 818 c10 -90 20 -165 22 -167 3 -3 76 19 164 47 87 29 169 52 182
52 51 -1 173 -37 176 -52 2 -8 -28 -47 -65 -86 l-68 -71 -172 -56 c-119 -39
-173 -61 -173 -71 0 -8 18 -88 41 -177 43 -174 91 -312 145 -419 19 -37 34
-70 34 -72 0 -7 -170 -99 -174 -95 -2 2 -24 45 -49 94 -64 128 -113 265 -159
444 -22 86 -41 157 -43 159 -6 6 -262 -108 -410 -183 -308 -156 -511 -299
-715 -504 -166 -167 -246 -279 -352 -489 l-81 -162 -119 0 c-78 0 -118 4 -118
11 0 6 12 41 26 77 230 579 781 1068 1594 1412 69 29 127 54 128 56 2 1 -8 83
-22 182 -14 98 -26 188 -26 200 0 22 5 23 170 30 l46 2 18 -162z m-490 -1189
c19 -50 52 -113 73 -140 103 -136 297 -231 521 -255 45 -5 62 -11 62 -21 0
-40 -34 -193 -43 -193 -32 0 -220 34 -262 47 -126 40 -302 151 -392 246 -93
100 -165 231 -175 321 -3 29 -1 30 82 57 47 16 88 28 92 29 3 0 22 -41 42 -91z"/>
</g>
</svg>
